<svg xmlns="http://www.w3.org/2000/svg" viewBox="0 0 400 300" preserveAspectRatio="xMidYMid slice"><defs><linearGradient id="s" x1="0" y1="0" x2="0" y2="1"><stop offset="0" stop-color="#e8c9a0"/><stop offset="1" stop-color="#9fb4cc"/></linearGradient></defs><rect width="400" height="300" fill="url(#s)"/><circle cx="300" cy="90" r="30" fill="#fff2c2" opacity=".85"/><rect x="0" y="83" width="23" height="167" fill="#516a86" opacity="1"/><rect x="5" y="88" width="4" height="6" fill="#ffe9a8" opacity=".8"/><rect x="5" y="104" width="4" height="6" fill="#ffe9a8" opacity=".8"/><rect x="5" y="152" width="4" height="6" fill="#ffe9a8" opacity=".8"/><rect x="5" y="184" width="4" height="6" fill="#ffe9a8" opacity=".8"/><rect x="5" y="232" width="4" height="6" fill="#ffe9a8" opacity=".8"/><rect x="27" y="173" width="31" height="77" fill="#516a86" opacity="0.75"/><rect x="32" y="194" width="4" height="6" fill="#ffe9a8" opacity=".8"/><rect x="32" y="210" width="4" height="6" fill="#ffe9a8" opacity=".8"/><rect x="32" y="226" width="4" height="6" fill="#ffe9a8" opacity=".8"/><rect x="61" y="77" width="37" height="173" fill="#516a86" opacity="0.75"/><rect x="66" y="162" width="4" height="6" fill="#ffe9a8" opacity=".8"/><rect x="66" y="194" width="4" height="6" fill="#ffe9a8" opacity=".8"/><rect x="66" y="226" width="4" height="6" fill="#ffe9a8" opacity=".8"/><rect x="66" y="242" width="4" height="6" fill="#ffe9a8" opacity=".8"/><rect x="100" y="66" width="30" height="184" fill="#516a86" opacity="0.75"/><rect x="105" y="71" width="4" height="6" fill="#ffe9a8" opacity=".8"/><rect x="105" y="87" width="4" height="6" fill="#ffe9a8" opacity=".8"/><rect x="105" y="119" width="4" height="6" fill="#ffe9a8" opacity=".8"/><rect x="105" y="151" width="4" height="6" fill="#ffe9a8" opacity=".8"/><rect x="130" y="69" width="21" height="181" fill="#516a86" opacity="1"/><rect x="135" y="90" width="4" height="6" fill="#ffe9a8" opacity=".8"/><rect x="135" y="138" width="4" height="6" fill="#ffe9a8" opacity=".8"/><rect x="135" y="154" width="4" height="6" fill="#ffe9a8" opacity=".8"/><rect x="135" y="170" width="4" height="6" fill="#ffe9a8" opacity=".8"/><rect x="135" y="186" width="4" height="6" fill="#ffe9a8" opacity=".8"/><rect x="135" y="218" width="4" height="6" fill="#ffe9a8" opacity=".8"/><rect x="135" y="234" width="4" height="6" fill="#ffe9a8" opacity=".8"/><rect x="151" y="64" width="23" height="186" fill="#516a86" opacity="0.75"/><rect x="156" y="69" width="4" height="6" fill="#ffe9a8" opacity=".8"/><rect x="156" y="117" width="4" height="6" fill="#ffe9a8" opacity=".8"/><rect x="156" y="181" width="4" height="6" fill="#ffe9a8" opacity=".8"/><rect x="156" y="197" width="4" height="6" fill="#ffe9a8" opacity=".8"/><rect x="156" y="213" width="4" height="6" fill="#ffe9a8" opacity=".8"/><rect x="176" y="112" width="37" height="138" fill="#516a86" opacity="0.75"/><rect x="181" y="117" width="4" height="6" fill="#ffe9a8" opacity=".8"/><rect x="181" y="133" width="4" height="6" fill="#ffe9a8" opacity=".8"/><rect x="181" y="181" width="4" height="6" fill="#ffe9a8" opacity=".8"/><rect x="214" y="149" width="31" height="101" fill="#516a86" opacity="1"/><rect x="219" y="186" width="4" height="6" fill="#ffe9a8" opacity=".8"/><rect x="219" y="202" width="4" height="6" fill="#ffe9a8" opacity=".8"/><rect x="219" y="218" width="4" height="6" fill="#ffe9a8" opacity=".8"/><rect x="246" y="173" width="35" height="77" fill="#516a86" opacity="0.9"/><rect x="251" y="210" width="4" height="6" fill="#ffe9a8" opacity=".8"/><rect x="251" y="242" width="4" height="6" fill="#ffe9a8" opacity=".8"/><rect x="283" y="182" width="27" height="68" fill="#516a86" opacity="0.9"/><rect x="288" y="187" width="4" height="6" fill="#ffe9a8" opacity=".8"/><rect x="288" y="203" width="4" height="6" fill="#ffe9a8" opacity=".8"/><rect x="311" y="68" width="22" height="182" fill="#516a86" opacity="0.75"/><rect x="316" y="73" width="4" height="6" fill="#ffe9a8" opacity=".8"/><rect x="316" y="137" width="4" height="6" fill="#ffe9a8" opacity=".8"/><rect x="316" y="153" width="4" height="6" fill="#ffe9a8" opacity=".8"/><rect x="316" y="233" width="4" height="6" fill="#ffe9a8" opacity=".8"/><rect x="337" y="112" width="33" height="138" fill="#516a86" opacity="0.75"/><rect x="342" y="133" width="4" height="6" fill="#ffe9a8" opacity=".8"/><rect x="342" y="165" width="4" height="6" fill="#ffe9a8" opacity=".8"/><rect x="342" y="213" width="4" height="6" fill="#ffe9a8" opacity=".8"/><rect x="371" y="83" width="36" height="167" fill="#516a86" opacity="0.9"/><rect x="376" y="136" width="4" height="6" fill="#ffe9a8" opacity=".8"/><rect x="376" y="152" width="4" height="6" fill="#ffe9a8" opacity=".8"/><rect x="376" y="168" width="4" height="6" fill="#ffe9a8" opacity=".8"/><rect x="376" y="184" width="4" height="6" fill="#ffe9a8" opacity=".8"/><rect x="376" y="232" width="4" height="6" fill="#ffe9a8" opacity=".8"/><rect y="250" width="400" height="50" fill="#d8bf94"/></svg>