<svg xmlns="http://www.w3.org/2000/svg" viewBox="0 0 400 300" preserveAspectRatio="xMidYMid slice"><defs><linearGradient id="s" x1="0" y1="0" x2="0" y2="1"><stop offset="0" stop-color="#7fc1ee"/><stop offset="1" stop-color="#dff1ff"/></linearGradient></defs><rect width="400" height="300" fill="url(#s)"/><circle cx="300" cy="90" r="30" fill="#fff1a8" opacity=".85"/><rect x="0" y="71" width="32" height="179" fill="#2f5f86" opacity="0.9"/><rect x="5" y="108" width="4" height="6" fill="#ffe9a8" opacity=".8"/><rect x="5" y="172" width="4" height="6" fill="#ffe9a8" opacity=".8"/><rect x="5" y="188" width="4" height="6" fill="#ffe9a8" opacity=".8"/><rect x="5" y="204" width="4" height="6" fill="#ffe9a8" opacity=".8"/><rect x="32" y="89" width="37" height="161" fill="#2f5f86" opacity="0.9"/><rect x="37" y="126" width="4" height="6" fill="#ffe9a8" opacity=".8"/><rect x="37" y="142" width="4" height="6" fill="#ffe9a8" opacity=".8"/><rect x="37" y="174" width="4" height="6" fill="#ffe9a8" opacity=".8"/><rect x="37" y="190" width="4" height="6" fill="#ffe9a8" opacity=".8"/><rect x="37" y="206" width="4" height="6" fill="#ffe9a8" opacity=".8"/><rect x="37" y="222" width="4" height="6" fill="#ffe9a8" opacity=".8"/><rect x="37" y="238" width="4" height="6" fill="#ffe9a8" opacity=".8"/><rect x="72" y="140" width="36" height="110" fill="#2f5f86" opacity="1"/><rect x="77" y="145" width="4" height="6" fill="#ffe9a8" opacity=".8"/><rect x="77" y="161" width="4" height="6" fill="#ffe9a8" opacity=".8"/><rect x="77" y="177" width="4" height="6" fill="#ffe9a8" opacity=".8"/><rect x="77" y="193" width="4" height="6" fill="#ffe9a8" opacity=".8"/><rect x="77" y="225" width="4" height="6" fill="#ffe9a8" opacity=".8"/><rect x="108" y="110" width="26" height="140" fill="#2f5f86" opacity="0.75"/><rect x="113" y="131" width="4" height="6" fill="#ffe9a8" opacity=".8"/><rect x="113" y="163" width="4" height="6" fill="#ffe9a8" opacity=".8"/><rect x="113" y="179" width="4" height="6" fill="#ffe9a8" opacity=".8"/><rect x="113" y="195" width="4" height="6" fill="#ffe9a8" opacity=".8"/><rect x="113" y="211" width="4" height="6" fill="#ffe9a8" opacity=".8"/><rect x="113" y="227" width="4" height="6" fill="#ffe9a8" opacity=".8"/><rect x="134" y="137" width="24" height="113" fill="#2f5f86" opacity="0.75"/><rect x="139" y="142" width="4" height="6" fill="#ffe9a8" opacity=".8"/><rect x="139" y="174" width="4" height="6" fill="#ffe9a8" opacity=".8"/><rect x="139" y="190" width="4" height="6" fill="#ffe9a8" opacity=".8"/><rect x="139" y="238" width="4" height="6" fill="#ffe9a8" opacity=".8"/><rect x="158" y="105" width="27" height="145" fill="#2f5f86" opacity="0.75"/><rect x="163" y="142" width="4" height="6" fill="#ffe9a8" opacity=".8"/><rect x="163" y="158" width="4" height="6" fill="#ffe9a8" opacity=".8"/><rect x="163" y="174" width="4" height="6" fill="#ffe9a8" opacity=".8"/><rect x="163" y="190" width="4" height="6" fill="#ffe9a8" opacity=".8"/><rect x="163" y="222" width="4" height="6" fill="#ffe9a8" opacity=".8"/><rect x="188" y="142" width="34" height="108" fill="#2f5f86" opacity="1"/><rect x="193" y="163" width="4" height="6" fill="#ffe9a8" opacity=".8"/><rect x="193" y="179" width="4" height="6" fill="#ffe9a8" opacity=".8"/><rect x="193" y="195" width="4" height="6" fill="#ffe9a8" opacity=".8"/><rect x="193" y="227" width="4" height="6" fill="#ffe9a8" opacity=".8"/><rect x="226" y="185" width="27" height="65" fill="#2f5f86" opacity="0.75"/><rect x="231" y="190" width="4" height="6" fill="#ffe9a8" opacity=".8"/><rect x="253" y="136" width="22" height="114" fill="#2f5f86" opacity="0.9"/><rect x="258" y="141" width="4" height="6" fill="#ffe9a8" opacity=".8"/><rect x="258" y="173" width="4" height="6" fill="#ffe9a8" opacity=".8"/><rect x="258" y="189" width="4" height="6" fill="#ffe9a8" opacity=".8"/><rect x="258" y="205" width="4" height="6" fill="#ffe9a8" opacity=".8"/><rect x="258" y="221" width="4" height="6" fill="#ffe9a8" opacity=".8"/><rect x="276" y="96" width="18" height="154" fill="#2f5f86" opacity="0.9"/><rect x="281" y="117" width="4" height="6" fill="#ffe9a8" opacity=".8"/><rect x="281" y="165" width="4" height="6" fill="#ffe9a8" opacity=".8"/><rect x="281" y="181" width="4" height="6" fill="#ffe9a8" opacity=".8"/><rect x="281" y="213" width="4" height="6" fill="#ffe9a8" opacity=".8"/><rect x="281" y="229" width="4" height="6" fill="#ffe9a8" opacity=".8"/><rect x="298" y="142" width="25" height="108" fill="#2f5f86" opacity="0.75"/><rect x="303" y="179" width="4" height="6" fill="#ffe9a8" opacity=".8"/><rect x="326" y="164" width="19" height="86" fill="#2f5f86" opacity="0.75"/><rect x="331" y="169" width="4" height="6" fill="#ffe9a8" opacity=".8"/><rect x="331" y="201" width="4" height="6" fill="#ffe9a8" opacity=".8"/><rect x="331" y="233" width="4" height="6" fill="#ffe9a8" opacity=".8"/><rect x="349" y="115" width="33" height="135" fill="#2f5f86" opacity="1"/><rect x="354" y="120" width="4" height="6" fill="#ffe9a8" opacity=".8"/><rect x="354" y="152" width="4" height="6" fill="#ffe9a8" opacity=".8"/><rect x="354" y="168" width="4" height="6" fill="#ffe9a8" opacity=".8"/><rect x="354" y="232" width="4" height="6" fill="#ffe9a8" opacity=".8"/><rect x="383" y="173" width="18" height="77" fill="#2f5f86" opacity="0.9"/><rect x="388" y="178" width="4" height="6" fill="#ffe9a8" opacity=".8"/><rect x="388" y="194" width="4" height="6" fill="#ffe9a8" opacity=".8"/><rect x="388" y="210" width="4" height="6" fill="#ffe9a8" opacity=".8"/><rect x="388" y="226" width="4" height="6" fill="#ffe9a8" opacity=".8"/><rect y="250" width="400" height="50" fill="#3f7f4a"/></svg>